<?xml version="1.0" encoding="UTF-8"?>
<svg id="Ebene_2" data-name="Ebene 2" xmlns="http://www.w3.org/2000/svg" viewBox="0 0 570.94 122.87">
  <defs>
    <style>
      .cls-1 {
        fill: #8b916b;
      }

      .cls-2 {
        fill: #4d5135;
      }
    </style>
  </defs>
  <g id="Ebene_1-2" data-name="Ebene 1">
    <g>
      <g>
        <path class="cls-2" d="M40.16,69.49h-5.59c-1.48,0-2.88.66-3.83,1.8l-5.27,6.36c-2.98,3.59-8.81,1.48-8.81-3.18h0c0-2.75-2.23-4.98-4.98-4.98h-6.71c-2.75,0-4.98,2.23-4.98,4.98v40.76c0,2.75,2.23,4.98,4.98,4.98h6.71c2.75,0,4.98-2.23,4.98-4.98v-1.04c0-4.74,6-6.8,8.91-3.05l5.53,7.14c.94,1.22,2.39,1.93,3.93,1.93h6.68c4.14,0,6.47-4.75,3.93-8.02l-12.21-15.76c-1.43-1.85-1.38-4.44.11-6.23l10.43-12.53c2.7-3.24.39-8.16-3.83-8.16Z"/>
        <rect class="cls-2" x="56.58" y="69.49" width="16.3" height="50.71" rx="4.98" ry="4.98"/>
        <path class="cls-2" d="M127.81,81.22c-2.25-3.77-5.48-6.66-9.71-8.69-4.22-2.03-9.29-3.04-15.18-3.04h-14.94c-2.75,0-4.98,2.23-4.98,4.98v40.76c0,2.75,2.23,4.98,4.98,4.98h14.94c5.89,0,10.95-1.01,15.18-3.04s7.46-4.94,9.71-8.73c2.25-3.79,3.37-8.32,3.37-13.58s-1.12-9.85-3.37-13.62ZM113.4,101.07c-.75,1.55-1.73,2.71-2.94,3.48-1.21.77-2.54,1.28-3.98,1.52-1.45.24-2.87.36-4.27.36h-2.61v-23.18h2.61c1.4,0,2.83.12,4.27.36,1.45.24,2.78.75,3.98,1.52,1.2.77,2.18,1.93,2.94,3.48.74,1.55,1.12,3.62,1.12,6.23s-.38,4.68-1.12,6.23Z"/>
        <path class="cls-2" d="M139.07,120.2h6.91c1.82,0,3.49-.99,4.37-2.59l.73-1.34c.87-1.6,2.55-2.59,4.37-2.59h7.92c1.8,0,3.46.97,4.34,2.54l.8,1.44c.88,1.57,2.54,2.54,4.34,2.54h6.95c3.75,0,6.15-3.98,4.4-7.3l-20.37-38.67c-1.87-3.54-6.94-3.54-8.81,0l-20.37,38.67c-1.75,3.31.66,7.3,4.4,7.3ZM163.76,102.23c-1.32,1.71-7.51,1.84-8.65,0-1.4-2.26,2.28-9.71,4.33-9.71,1.82,0,5.95,7.61,4.33,9.71Z"/>
        <path class="cls-2" d="M211.05,81.51c.7-.39,1.61-.58,2.72-.58.92,0,1.86.17,2.83.51.97.34,1.92.86,2.86,1.56.94.7,2.22,1.87,3.56,2.36,2.18.8,8.31-3.8,9.38-6.38.75-1.82-.83-3.12-2.59-4.85-1.77-1.74-4.01-3.19-6.74-4.35s-6-1.74-9.82-1.74c-3.53,0-6.76.58-9.71,1.74s-5.31,2.87-7.09,5.14c-1.79,2.27-2.68,5.07-2.68,8.4,0,2.56.47,4.78,1.42,6.67.94,1.88,2.12,3.48,3.55,4.78s2.92,2.37,4.49,3.19c1.57.82,2.96,1.48,4.16,1.96,2.75,1.06,4.8,1.91,6.15,2.54,1.36.63,2.26,1.18,2.72,1.67.46.48.69,1.06.69,1.74,0,1.11-.43,1.92-1.3,2.43-.87.51-1.93.76-3.19.76-1.5,0-2.98-.31-4.45-.94-1.48-.63-2.86-1.54-4.09-2.79-1.96-1.99-1.73-3.2-4.16-3.32-2.16-.11-6.17,4.04-6.17,4.04-2.23,1.63-2.82,4.83-1.1,6.99.75.93,1.58,1.83,2.52,2.68,2.27,2.08,4.96,3.71,8.07,4.89,3.12,1.18,6.49,1.77,10.11,1.77,2.61,0,5.14-.36,7.61-1.08,2.46-.72,4.67-1.79,6.62-3.19,1.96-1.4,3.51-3.17,4.67-5.32,1.16-2.15,1.74-4.62,1.74-7.43,0-1.98-.29-3.78-.87-5.4-.58-1.62-1.44-3.08-2.57-4.38-1.14-1.3-2.5-2.45-4.09-3.44s-3.41-1.85-5.43-2.57c-1.98-.72-3.79-1.36-5.43-1.92-1.64-.55-2.96-1.16-3.95-1.81-.99-.65-1.49-1.49-1.49-2.5,0-.82.35-1.42,1.05-1.81Z"/>
        <path class="cls-2" d="M270.5,86.88h-8.16c-2.75,0-4.98-2.23-4.98-4.98v-7.43c0-2.75-2.23-4.98-4.98-4.98h-5.98c-2.75,0-4.98,2.23-4.98,4.98v40.76c0,2.75,2.23,4.98,4.98,4.98h5.98c2.75,0,4.98-2.23,4.98-4.98v-9.24c0-2.75,2.23-4.98,4.98-4.98h8.16c2.75,0,4.98,2.23,4.98,4.98v9.24c0,2.75,2.23,4.98,4.98,4.98h5.99c2.75,0,4.98-2.23,4.98-4.98v-40.76c0-2.75-2.23-4.98-4.98-4.98h-5.99c-2.75,0-4.98,2.23-4.98,4.98v7.43c0,2.75-2.23,4.98-4.98,4.98Z"/>
      </g>
      <g>
        <path class="cls-2" d="M305.05,10.48c6.49-.75,7.69-3.94,12.22-7.62,4.53-3.68,12.94-4.89,20.54,3.13,19.78,17.95,27.6,77.44,27.6,77.44.13,2.77-.29,4.37-1.5,4.28-1.2-.1-1.88-.2-2.34-4.99-.77-8.07-1.46-14.35-2.23-19.7-3.15-4.37-6.86-7.7-11.28-5.84-6.75,2.84-7.3,8.71-11.34,12.12-1.88,1.59-6.16,1.22-9.01,1.68-2.85.46-5.21,1.67-6.28,3.62-.9,1.64-.37,2.59.52,13.71.67,8.43,1.23,27.75,1.48,29.95.2,1.84-.9,1.64-4.12,1.64s-4.94,0-6.63-.01c-2.07-.02-4.29.21-4.73-.63s.07-1.66,1.84-4c.95-1.26,1.6-1.84,2.16-3.95.92-3.48-2.92-25.8-3.55-29.61-.63-3.81,1.06-18.35,1.64-20.11.59-1.77-.02-2.35-1.06-1.17s-2.34,8.82-2.47,11.17-1.77,9.2-2.46,11.9c-.55,2.17-.57,3.82-.4,6.46s-.71,6.01-2.36,6.09c-1.65.08-2.5-3-2.6-5.32-.07-1.61,1.75-7.2,2.48-10,.73-2.79,1.08-19.24,1.17-22.16.12-3.82,2.81-8.08,5.34-9.73,2.55-1.49,5.39-.94,7.38.97,1.67,1.6,1.54,4.24,1.72,7.91.14,2.93,1.99,3.8,5,4.8,2.85.95,5.12.69,8.43.23,2.84-.4,9.72-7.85,12.26-9.93,2.54-2.07,6.63-2.7,10.4-.82,1.95.97,4.2,3.97,5.85,6.95-1.52-9.12-3.44-15.75-6.73-25.32-8.9-25.92-18.26-17.66-20.26-24.04-1.16-3.7-7.03-5.26-9.37-4.01-5.41,2.9-6.96,5.71-9.24,7.86-2.28,2.15-3.99,2.14-7.19,3.04-7.29,2.05-5.45,5.03-7.81,7.31-1.21,1.17-2.29.88-2.41-.94-.26-4.02-3.16.08-3.05-4,.12-4.69,4.96-7.51,12.4-8.37Z"/>
        <path class="cls-2" d="M294.95,37.18c1.35-.15,3.58-.39,7.02-.42,2.47-.02,3.08,2.02,5.25,2.44,2.17.42,5.28-3.68,5.94-4.86.66-1.17,1.79-.45,1.2.72-.93,1.84-2.84,3.74-3.29,6.27-.45,2.53.04,4.59-2.55,4.61-2.59.02-4.26-2.95-4.26-2.95-1.13-1.47-3.53-.64-5.7-1.17-2.02-.49-3.9-1.86-4.58-2.52-.83-.8-1.14-1.89.95-2.12Z"/>
      </g>
      <g>
        <path class="cls-1" d="M359.67,80.77c-3.19-1.81-6.87-2.71-11.07-2.71h-11.71v43.15h11.71c4.2,0,7.88-.9,11.07-2.71,3.19-1.81,5.67-4.32,7.46-7.55,1.79-3.22,2.68-6.99,2.68-11.31s-.89-8.09-2.68-11.31c-1.78-3.23-4.27-5.74-7.46-7.55ZM365.16,107.12c-.84,2.24-2.05,4.15-3.61,5.73-1.56,1.58-3.44,2.8-5.64,3.67-2.19.86-4.63,1.3-7.3,1.3h-8.32v-36.37h8.32c2.67,0,5.11.43,7.3,1.3,2.2.86,4.08,2.09,5.64,3.67,1.56,1.58,2.76,3.49,3.61,5.73.84,2.24,1.26,4.74,1.26,7.49s-.42,5.25-1.26,7.49Z"/>
        <polygon class="cls-1" points="383.86 78.05 383.86 121.2 407.04 121.2 407.04 118 387.25 118 387.25 99.13 405.81 99.13 405.81 95.93 387.25 95.93 387.25 81.26 407.04 81.26 407.04 78.05 383.86 78.05"/>
        <path class="cls-1" d="M443.75,101.54c-1.05-.99-2.21-1.81-3.49-2.47-1.27-.66-2.51-1.21-3.7-1.66-2.3-.82-4.23-1.7-5.8-2.62-1.56-.92-2.73-1.96-3.51-3.12-.78-1.15-1.17-2.53-1.17-4.13,0-1.93.68-3.54,2.03-4.84,1.36-1.3,3.29-1.94,5.8-1.94,1.89,0,3.47.36,4.75,1.08,1.27.72,2.33,1.62,3.17,2.68.84,1.07,1.49,2.16,1.94,3.27l2.96-1.66c-.58-1.4-1.42-2.75-2.53-4.07-1.11-1.31-2.49-2.41-4.16-3.27-1.67-.86-3.65-1.29-5.95-1.29s-4.22.44-5.98,1.32c-1.77.88-3.15,2.12-4.13,3.7-.99,1.58-1.48,3.4-1.48,5.46,0,1.85.36,3.43,1.08,4.75.72,1.31,1.65,2.43,2.8,3.36s2.39,1.71,3.73,2.34c1.34.64,2.62,1.18,3.85,1.63,1.64.62,3.22,1.33,4.72,2.13,1.5.8,2.72,1.84,3.67,3.12s1.42,2.96,1.42,5.05c0,2.38-.79,4.35-2.37,5.89-1.59,1.54-3.77,2.31-6.57,2.31-2.05,0-3.82-.44-5.3-1.32-1.48-.88-2.72-2.07-3.73-3.54-1.01-1.48-1.86-3.12-2.56-4.93l-2.78,1.73c.7,2.01,1.68,3.88,2.96,5.61,1.27,1.73,2.85,3.11,4.75,4.13,1.89,1.03,4.09,1.54,6.59,1.54,1.77,0,3.41-.28,4.93-.83,1.52-.55,2.84-1.36,3.97-2.4,1.13-1.05,2.01-2.29,2.65-3.73.64-1.44.96-3.04.96-4.81,0-1.89-.33-3.52-.99-4.9-.66-1.38-1.51-2.56-2.56-3.54Z"/>
        <rect class="cls-1" x="461.28" y="78.05" width="3.39" height="43.15"/>
        <path class="cls-1" d="M501.23,102.9h15.47c-.2,2.09-.74,4.07-1.6,5.92-.86,1.85-2,3.49-3.42,4.93-1.42,1.44-3.1,2.57-5.02,3.39-1.93.82-4.11,1.23-6.54,1.23-3.41,0-6.46-.8-9.15-2.4-2.69-1.6-4.83-3.81-6.41-6.63-1.58-2.81-2.37-6.05-2.37-9.71s.79-6.95,2.37-9.74c1.58-2.79,3.73-4.99,6.44-6.59,2.71-1.6,5.75-2.4,9.12-2.4s6.54.74,9.12,2.22c2.59,1.48,4.61,3.41,6.04,5.8l2.46-2.16c-1.23-1.93-2.71-3.59-4.44-4.96-1.73-1.38-3.68-2.43-5.88-3.17-2.2-.74-4.63-1.11-7.3-1.11-3.08,0-5.93.54-8.54,1.63-2.61,1.09-4.89,2.62-6.84,4.59-1.95,1.97-3.46,4.31-4.53,7.03-1.07,2.71-1.61,5.67-1.61,8.88s.53,6.16,1.61,8.88c1.07,2.71,2.58,5.05,4.53,7.03,1.95,1.97,4.23,3.5,6.84,4.59,2.61,1.09,5.46,1.63,8.54,1.63s6-.59,8.51-1.78c2.51-1.19,4.64-2.81,6.41-4.87,1.77-2.05,3.1-4.41,4-7.06.91-2.65,1.36-5.43,1.36-8.35h-19.16v3.2Z"/>
        <polygon class="cls-1" points="567.55 78.05 567.55 114.18 534.75 76.39 534.75 121.2 538.14 121.2 538.14 85.21 570.94 122.87 570.94 78.05 567.55 78.05"/>
      </g>
    </g>
  </g>
</svg>