<svg width="48" height="48" viewBox="0 0 48 48" fill="none" xmlns="http://www.w3.org/2000/svg">
<path d="M27.5473 28.878C29.0795 33.4185 30.1097 38.1131 30.6193 42.878C28.4916 43.6224 26.2534 44.0017 23.9993 44C20.0336 44.0066 16.1565 42.8282 12.8653 40.616C14.399 37.7741 16.4893 35.2701 19.0113 33.2531C21.5334 31.2361 24.4357 29.7475 27.5453 28.876L27.5473 28.878ZM43.1453 29.804C41.7178 34.4968 38.6188 38.5031 34.4353 41.064C33.8735 36.6693 32.8958 32.3379 31.5153 28.128C35.4708 27.7194 39.466 28.2952 43.1453 29.804ZM24.2893 20.97C24.9546 22.3273 25.5746 23.7093 26.1493 25.116C19.2221 27.1454 13.3434 31.7662 9.73525 38.018C7.70748 35.94 6.15249 33.4485 5.17666 30.7139C4.20082 27.9794 3.82717 25.0663 4.08125 22.174C10.7673 23.59 17.8213 23.178 24.2893 20.97ZM39.4393 11.288C42.7712 15.3574 44.3791 20.5687 43.9193 25.808C39.5195 24.1525 34.7757 23.6231 30.1193 24.268C29.476 22.6436 28.7722 21.0438 28.0093 19.472C32.2951 17.4786 36.1714 14.7031 39.4393 11.288ZM14.5313 6.38001C17.5211 9.76921 20.1549 13.4566 22.3913 17.384C16.7149 19.1918 10.6652 19.4882 4.83925 18.244C6.37317 13.1629 9.85828 8.89676 14.5313 6.38001ZM23.9993 4.00001C28.7753 4.00001 33.1613 5.67401 36.5993 8.46801C33.6236 11.5919 30.0805 14.1209 26.1593 15.92C23.9521 11.9671 21.3667 8.23762 18.4393 4.78401C20.2465 4.26252 22.1183 3.99858 23.9993 4.00001Z" fill="white"/>
</svg>
