<svg width="48" height="48" viewBox="0 0 48 48" fill="none" xmlns="http://www.w3.org/2000/svg">
<path d="M13.8789 10C13.8784 11.0609 13.4564 12.0781 12.7059 12.8279C11.9554 13.5777 10.9378 13.9986 9.87691 13.998C8.81604 13.9975 7.79884 13.5756 7.04907 12.8251C6.29929 12.0745 5.87838 11.0569 5.87891 9.99605C5.87944 8.93518 6.30137 7.91798 7.05189 7.16821C7.80241 6.41844 8.82004 5.99752 9.88091 5.99805C10.9418 5.99858 11.959 6.42051 12.7087 7.17103C13.4585 7.92155 13.8794 8.93918 13.8789 10ZM13.9989 16.96H5.99891V42H13.9989V16.96ZM26.6389 16.96H18.6789V42H26.5589V28.86C26.5589 21.54 36.0989 20.86 36.0989 28.86V42H43.9989V26.14C43.9989 13.8 29.8789 14.26 26.5589 20.32L26.6389 16.96Z" fill="white"/>
</svg>
