<svg width="48" height="48" viewBox="0 0 48 48" fill="none" xmlns="http://www.w3.org/2000/svg">
<path d="M40.14 12.7002H30V15.5202H40.18L40.14 12.7002ZM38 32.1002C37.2308 32.6099 36.3224 32.8684 35.4 32.8402C34.7895 32.9038 34.1724 32.8408 33.5873 32.6549C33.0023 32.4691 32.4619 32.1645 32 31.7602C31.1479 30.7909 30.7035 29.5296 30.76 28.2402H44C44.0945 26.8973 43.9798 25.5479 43.66 24.2402C43.3488 22.9965 42.806 21.8227 42.06 20.7802C41.3067 19.7708 40.3361 18.9437 39.22 18.3602C37.9761 17.7494 36.6056 17.4411 35.22 17.4602C33.9167 17.4517 32.6249 17.7033 31.42 18.2002C30.3167 18.6647 29.3172 19.3446 28.48 20.2002C27.6448 21.0724 26.998 22.1072 26.58 23.2402C26.1314 24.4633 25.9078 25.7575 25.92 27.0602C25.8985 28.3815 26.1153 29.6958 26.56 30.9402C26.9389 32.0664 27.5371 33.1064 28.32 34.0002C29.1318 34.8765 30.1296 35.5599 31.24 36.0002C32.4782 36.4719 33.7952 36.7028 35.12 36.6802C36.9788 36.7381 38.8141 36.2515 40.4 35.2802C42.003 34.1431 43.1566 32.48 43.66 30.5802H39.24C39.0034 31.2084 38.5679 31.7422 38 32.1002ZM31.14 23.8602C31.2957 23.3615 31.554 22.901 31.8985 22.5083C32.243 22.1157 32.6659 21.7995 33.14 21.5802C33.7683 21.2989 34.4518 21.1622 35.14 21.1802C35.6372 21.1377 36.1378 21.2033 36.6073 21.3725C37.0768 21.5416 37.5041 21.8103 37.86 22.1602C38.5405 22.9915 38.9767 23.9955 39.12 25.0602H30.82C30.8524 24.6537 30.9261 24.2517 31.04 23.8602H31.14ZM20.56 22.9002C21.5779 22.4763 22.4624 21.7853 23.12 20.9002C23.7269 19.9613 24.0274 18.8571 23.98 17.7402C24.0177 16.722 23.8192 15.7088 23.4 14.7802C23.0466 13.976 22.4794 13.2842 21.76 12.7802C20.9985 12.2539 20.1319 11.8991 19.22 11.7402C18.1417 11.5134 17.0418 11.4061 15.94 11.4202H4V36.5802H16.2C17.3133 36.5799 18.4221 36.4388 19.5 36.1602C20.5208 35.894 21.4883 35.4543 22.36 34.8602C23.2051 34.2775 23.8924 33.494 24.36 32.5802C24.8806 31.56 25.1352 30.4249 25.1 29.2802C25.1379 27.8617 24.74 26.4656 23.96 25.2802C23.1212 24.088 21.877 23.242 20.46 22.9002H20.56ZM9.54 15.7202H14.72C15.196 15.7179 15.6712 15.758 16.14 15.8402C16.5724 15.902 16.9876 16.0518 17.36 16.2802C17.7207 16.4842 18.013 16.7904 18.2 17.1602C18.4335 17.6029 18.544 18.1002 18.52 18.6002C18.5573 19.0307 18.4914 19.4638 18.328 19.8638C18.1645 20.2638 17.9081 20.619 17.58 20.9002C16.8642 21.3922 16.0078 21.638 15.14 21.6002H9.54V15.7202ZM19.22 30.6002C19.0129 31.0067 18.7025 31.3516 18.32 31.6002C17.9206 31.8486 17.4805 32.0246 17.02 32.1202C16.5082 32.2353 15.9845 32.289 15.46 32.2802H9.46V25.3802H15.46C16.4896 25.3351 17.5064 25.6226 18.36 26.2002C18.7456 26.5462 19.0443 26.9782 19.232 27.4612C19.4196 27.9442 19.4909 28.4645 19.44 28.9802C19.4919 29.5299 19.4166 30.0842 19.22 30.6002Z" fill="white"/>
</svg>
